<svg xmlns="http://www.w3.org/2000/svg" viewBox="0 0 64 64" fill="none">
  <rect width="64" height="64" rx="14" fill="#0a0a0a"/>
  <circle cx="32" cy="32" r="22" fill="none" stroke="#c8202c" stroke-width="1.5"/>
  <line x1="32" y1="8" x2="32" y2="14" stroke="#c8202c" stroke-width="1.5"/>
  <line x1="32" y1="50" x2="32" y2="56" stroke="#c8202c" stroke-width="1.5"/>
  <line x1="8" y1="32" x2="14" y2="32" stroke="#c8202c" stroke-width="1.5"/>
  <line x1="50" y1="32" x2="56" y2="32" stroke="#c8202c" stroke-width="1.5"/>
  <path d="M32 22 C36 22 38.5 24.5 38.5 28 C38.5 31.5 32 38 32 38 C32 38 25.5 31.5 25.5 28 C25.5 24.5 28 22 32 22 Z" fill="#c8202c"/>
  <circle cx="32" cy="27" r="2" fill="#0a0a0a"/>
  <path d="M22 18 L24 38 L27 38 L25 26 Z M42 18 L40 38 L37 38 L39 26 Z" fill="#1a1a1a" stroke="#f5f5f5" stroke-width="0.8"/>
</svg>
